<?xml version="1.0" encoding="utf-8"?>
<!-- Generator: Adobe Illustrator 16.0.3, SVG Export Plug-In . SVG Version: 6.00 Build 0)  -->
<!DOCTYPE svg PUBLIC "-//W3C//DTD SVG 1.1//EN" "http://www.w3.org/Graphics/SVG/1.1/DTD/svg11.dtd">
<svg version="1.1"
 xmlns:dc="http://purl.org/dc/elements/1.1/" xmlns:svg="http://www.w3.org/2000/svg" 
 xmlns="http://www.w3.org/2000/svg" xmlns:xlink="http://www.w3.org/1999/xlink" x="0px" y="0px" viewBox="0 0 602.9 898.36" enable-background="new 0 0 602.9 898.36" xml:space="preserve">
	<g id="layer1" transform="translate(22694.17,4769.5146)" stroke="#000000" stroke-width="1.5" fill="none">
		<g id="g4935">
			<g id="g4810" transform="translate(-700,220)">

				<path fill="#D7D7D7" d="
M-21691.83-4988.77c-4.72,0.54-10,4.45-16.25,13.76c-5.77-1.21-11.53-1.56-18.06-2.01c-5.03,11.3-3.94,17.29-1.43,22.94
c-5.49,2-11.04,4.55-16.91,10.32c6.19,9.93,11.77,12.15,17.2,12.62c-2.71,5.51-7.52,9.11-14.05,11.18
c7.99,8.94,16.29,12.2,24.66,14.33c-18.14,15.92-52.82,19.74-65.94-1.43c-6.24-10.07,5.64-18.37,9.75-6.88
c9.02-5.94,2.8-20.3-7.9-19.55c-5.38,0.37-13.52,6.5-20.2,10.38c-2.64-1.62-5.55-1.8-7.88-2.58
c-22.63-7.65-24.33,15.65-13.62,20.36c2.71-15.36,19.11-4.95,15.2,6.02c-5.75,16.13-27.43,18.01-40.42,13.19
c4.23-4.19,6.46-9.39,4.59-16.63c-3.1,2.25-9.35,2.22-16.63,1.43c5.18-5.45,10.57-10.52,12.04-22.65
c-5.53-2.12-10.96-4.38-18.35-3.15c-2.8-8.73-9.31-14.91-18.21-21.36c-2.63,4.57-3.71,7.14-3.3,10.18
c-13.81-4.63-27.65-9.36-36.98-0.57c24.93-0.11,62.59,92.3,70.93,132.02l-2.23,8.11c1.12,9.99,28.65,16.02,35.88,19.66
l128.12,20.27l128.12-20.27c7.24-3.65,34.76-9.67,35.88-19.66l-2.23-8.11c8.35-39.72,46-132.13,70.93-132.02
c-9.33-8.79-23.18-4.06-36.98,0.57c0.42-3.04-0.66-5.61-3.3-10.18c-8.9,6.45-15.41,12.62-18.21,21.36
c-7.38-1.23-12.82,1.04-18.35,3.15c1.47,12.13,6.86,17.2,12.04,22.65c-7.28,0.79-13.53,0.82-16.63-1.43
c-1.87,7.24,0.36,12.44,4.59,16.63c-12.99,4.82-34.68,2.94-40.42-13.19c-3.91-10.97,12.48-21.38,15.2-6.02
c10.71-4.71,9.01-28.01-13.62-20.36c-2.33,0.79-5.24,0.97-7.88,2.58c-6.68-3.88-14.82-10.01-20.2-10.38
c-10.7-0.74-16.91,13.61-7.9,19.55c4.11-11.49,15.99-3.19,9.75,6.88c-13.12,21.17-47.8,17.35-65.94,1.43
c8.37-2.14,16.67-5.39,24.66-14.33c-6.53-2.07-11.34-5.67-14.05-11.18c5.43-0.46,11.01-2.68,17.2-12.62
c-5.87-5.77-11.42-8.32-16.91-10.32c2.5-5.65,3.6-11.64-1.43-22.94c-6.53,0.45-12.29,0.8-18.06,2.01
C-21681.82-4984.32-21687.1-4988.23-21691.83-4988.77"/>

				<path fill="#D7D7D7" d="
M-21691.83-4867.81c-66.17,0-115.77,9.44-172.28,23.79c-2.83,2.25-8.36-5.72-2.38-10.3c63.14-20.34,122.41-24.43,174.66-24.43"/>
				<path fill="#FF00FF" d="M-21807.76-4854.1
c-2.64,0-4.78,2.14-4.78,4.78c0,2.64,2.14,4.78,4.78,4.78c2.64,0,4.78-2.14,4.78-4.78
C-21802.98-4851.96-21805.12-4854.1-21807.76-4854.1z M-21807.76-4853.94c2.54,0,4.61,2.07,4.61,4.62c0,2.55-2.06,4.62-4.61,4.62
c-2.54,0-4.61-2.07-4.61-4.62C-21812.37-4851.87-21810.31-4853.94-21807.76-4853.94z"/>
				<path fill="#FF00FF" d="M-21805.26-4838.47
c-2.57,0-4.65,2.08-4.65,4.66s2.08,4.65,4.65,4.65c2.57,0,4.66-2.08,4.66-4.65S-21802.69-4838.47-21805.26-4838.47z
 M-21805.26-4838.32c2.48,0,4.49,2.01,4.49,4.5c0,2.48-2.01,4.5-4.49,4.5s-4.49-2.01-4.49-4.5
C-21809.75-4836.3-21807.74-4838.32-21805.26-4838.32z"/>
				<path fill="#FF00FF" d="M-21764.51-4860.97
c-2.64,0-4.78,2.14-4.78,4.78c0,2.64,2.14,4.78,4.78,4.78c2.64,0,4.78-2.14,4.78-4.78
C-21759.73-4858.83-21761.87-4860.97-21764.51-4860.97z M-21764.51-4860.81c2.54,0,4.61,2.07,4.61,4.62
c0,2.55-2.06,4.62-4.61,4.62c-2.54,0-4.61-2.07-4.61-4.62C-21769.12-4858.75-21767.06-4860.81-21764.51-4860.81z"/>
				<path fill="#FF00FF" d="M-21762.01-4845.35
c-2.57,0-4.65,2.08-4.65,4.66s2.08,4.65,4.65,4.65c2.57,0,4.66-2.08,4.66-4.65S-21759.44-4845.35-21762.01-4845.35z
 M-21762.01-4845.19c2.48,0,4.49,2.01,4.49,4.5c0,2.48-2.01,4.5-4.49,4.5s-4.49-2.01-4.49-4.5
C-21766.5-4843.18-21764.49-4845.19-21762.01-4845.19z"/>

				<path d="
M-21895.28-4922.29c0.66,3.42,0.88,6.83-0.13,10.25
M-21885.4-4928.29c0.29,8.33-2.01,14.54-5.38,19.88
M-21867.9-4915.29c-5.52,4.74-11.94,8.22-19.13,10.63
M-21885.53-4902.16c4.91-0.37,8.84-0.25,11.75,0.38
M-21884.03-4898.79c5.83,2.75,11.5,5,17,6.75
M-21883.65-4891.66c6.25,5,12.5,8.68,18.75,12.75
M-21803.65-4921.29c4.09,9.28,1.96,15.94-0.13,22.63
M-21799.78-4921.54c2.71,9.28,7.49,15.04,12.5,20.38M-21691.83-4974.54
v20.7
M-21717.03-4961.41c6.21,6,12.42,12.37,18.63,12.88M-21702.65-4959.54
l5.25,9.25
M-21711.53-4948.91c3.63,2,7.18,4.54,11.13,4
M-21722.9-4941.29c7.86,1.75,15.26,2.29,22.13,0
M-21714.4-4931.91c5.73-0.4,9.6-2.34,13.38-4.38
M-21720.28-4919.79c2.52,1.65,22.07-9.37,20.25-12
M-21705.78-4919.79c1.59,0.72,8.94-8.62,7.38-10.38
M-21710.03-4903.66c5.35-7.83,15.02-13.4,14.13-24.5
M-21854.5-4846.43c10.82,4.82,21.65,5.45,32.47,6.14c-9.62,6.54-19.23,13.1-22.87,26.55
M-21714.77-4867.42c-6.61,7.1-14.81,12.62-24.75,16.38c8.4,4.23,17.26,7.81,22.78,16.2
M-21708.4-4828.04v44.75
M-21730.65-4826.79v35.75
M-21747.78-4825.29v28.5M-21763.53-4825.04
l0.5,27.25
M-21774.78-4824.29v28.25M-21785.28-4822.04
l0.25,26.5
M-21793.03-4821.04v28
M-21800.78-4820.04v29.5
M-21807.65-4818.79v30
M-21812.53-4817.54v31.5
M-21817.52-4816.79v31.5
M-21822.28-4815.54v32
M-21826.9-4813.79v31M-21832.4-4808.91
v25.26M-21836.96-4807.1
v21.81M-21841.09-4805.48
v18.57M-21845.22-4803.43
v14.66M-21848.86-4801.29
v10.55"/>

				<path fill="#D7D7D7" d="
M-21691.83-4824.09c-44.38,0-140.74,3.4-163.42,28.07c-2.83,2.25-8.36-5.72-2.38-10.3c41.35-30.08,149.39-28.71,165.8-28.71"/>
				<g id="g4665" transform="translate(20,0)">

					<path fill="#D7D7D7" stroke="#D7D7D7" stroke-width="1.2" stroke-linecap="square" stroke-linejoin="round" d="
M-21909.84-4887.73c-6.21-2.21-11.81-11.61-11.51-19.3c0.17-4.33,1.91-6.63,4.99-6.59c6.13,0.08,13.47,10.41,13.47,18.96
C-21902.9-4889.09-21905.73-4886.27-21909.84-4887.73L-21909.84-4887.73z"/>
					<path fill="#D7D7D7" stroke-width="1.2" d="
M-21918.99-4914.37c-4.32,2.13-4.75,10.07-0.96,17.73c3.78,7.66,10.35,12.14,14.67,10.01c4.32-2.13,4.75-10.07,0.96-17.73
C-21908.11-4912.02-21914.67-4916.5-21918.99-4914.37z M-21918.75-4913.9c4.17-2.06,10.51,2.26,14.16,9.66
c3.66,7.4,3.24,15.06-0.93,17.12c-4.17,2.06-10.51-2.26-14.16-9.66C-21923.34-4904.18-21922.93-4911.84-21918.75-4913.9
L-21918.75-4913.9z"/>

					<path d="
M-21912.65-4893.91c3.71,2.03,5.71,0.21,6.75-3.75"/>
				</g>
				<g id="g4672">

					<path fill="#D7D7D7" stroke="#D7D7D7" stroke-linecap="square" stroke-linejoin="round" d="
M-21805.4-4919.37c-6.44-1.86-10.58-7.62-10.17-14.16c0.32-5.1,3.09-9.21,7.76-11.5c3.96-1.94,7.8-1.94,11.88,0.01
c4.69,2.24,7.78,7.1,7.77,12.23c-0.01,5.78-3.72,11.08-9.13,13.05C-21799.12-4919.06-21803.63-4918.86-21805.4-4919.37z"/>
					<path fill="#D7D7D7" d="M-21801.89-4947.6
c-8.23,0-14.9,6.68-14.9,14.9s6.68,14.9,14.9,14.9c8.23,0,14.91-6.68,14.91-14.9S-21793.66-4947.6-21801.89-4947.6z
 M-21801.89-4947.09c7.95,0,14.4,6.44,14.4,14.39c0,7.95-6.44,14.39-14.4,14.39c-7.95,0-14.4-6.44-14.4-14.39
C-21816.29-4940.65-21809.84-4947.09-21801.89-4947.09z"/>

					<path d="
M-21797.4-4939.41c2.67,1.08,3.83,2.83,3.5,5.25
M-21810.78-4930.91c2.82,3.01,6.06,5.51,12.5,4.25"/>
				</g>

				<path fill="#D7D7D7" d="
M-21691.83-4867.81c66.17,0,115.77,9.44,172.28,23.79c2.83,2.25,8.36-5.72,2.38-10.3c-63.14-20.34-122.41-24.43-174.66-24.43"/>

				<path d="
M-21513.83-4874.37c-39.76,15.8-62.84,0.5-76.22-17.43c-29.96,15.55-53.08,16-101.77-4.87c-48.69,20.86-71.8,20.41-101.77,4.87
c-13.39,17.93-36.46,33.24-76.22,17.43"/>
				<g>
					<g id="g4688" transform="translate(120,0)">

						<path fill="#005CA1" stroke="#005CA1" stroke-linecap="square" stroke-linejoin="round" d="
M-21915.01-4839.78c-8.63-4.85,7.93-14.56,18.16-10.66c5.56,2.12,4.81,6.55-1.64,9.72
C-21902.69-4838.66-21912.07-4838.12-21915.01-4839.78z"/>
						<path d="M-21906.57-4852.04
c-7.51,1.46-12.97,5.84-12.2,9.79c0.78,3.94,7.47,5.96,14.98,4.5c7.51-1.46,12.97-5.84,12.2-9.79
C-21892.37-4851.48-21899.07-4853.5-21906.57-4852.04L-21906.57-4852.04z M-21906.57-4851.79c7.25-1.41,13.72,0.53,14.46,4.34
c0.73,3.81-4.53,8.04-11.79,9.45c-7.25,1.41-13.72-0.53-14.46-4.34C-21919.09-4846.15-21913.82-4850.38-21906.57-4851.79
L-21906.57-4851.79z"/>
					</g>

					<g id="g4698" transform="matrix(-1,0,0,1,-43503.653,0)">

						<path fill="#005CA1" stroke="#005CA1" stroke-linecap="square" stroke-linejoin="round" d="
M-21915.01-4839.78c-8.62-4.85,7.93-14.56,18.16-10.66c5.56,2.12,4.81,6.55-1.64,9.72
C-21902.69-4838.66-21912.07-4838.12-21915.01-4839.78z"/>
						<path d="M-21906.57-4852.04
c-7.51,1.46-12.97,5.84-12.2,9.79c0.78,3.94,7.47,5.96,14.98,4.5c7.51-1.46,12.97-5.84,12.2-9.79
C-21892.37-4851.48-21899.07-4853.5-21906.57-4852.04L-21906.57-4852.04z M-21906.57-4851.79c7.25-1.41,13.72,0.53,14.46,4.34
c0.73,3.81-4.53,8.04-11.79,9.45c-7.25,1.41-13.72-0.53-14.46-4.34C-21919.09-4846.15-21913.82-4850.38-21906.57-4851.79
L-21906.57-4851.79z"/>
					</g>
				</g>

				<path fill="#FF00FF" d="
M-21575.89-4854.1c2.64,0,4.78,2.14,4.78,4.78c0,2.64-2.14,4.78-4.78,4.78c-2.64,0-4.78-2.14-4.78-4.78
C-21580.67-4851.96-21578.53-4854.1-21575.89-4854.1z M-21575.89-4853.94c-2.54,0-4.61,2.07-4.61,4.62
c0,2.55,2.06,4.62,4.61,4.62c2.54,0,4.61-2.07,4.61-4.62C-21571.28-4851.87-21573.35-4853.94-21575.89-4853.94z"/>

				<path fill="#FF00FF" d="
M-21578.39-4838.47c2.57,0,4.65,2.08,4.65,4.66s-2.08,4.65-4.65,4.65c-2.57,0-4.66-2.08-4.66-4.65
S-21580.96-4838.47-21578.39-4838.47z M-21578.39-4838.32c-2.48,0-4.49,2.01-4.49,4.5c0,2.48,2.01,4.5,4.49,4.5
s4.49-2.01,4.49-4.5C-21573.9-4836.3-21575.91-4838.32-21578.39-4838.32z"/>

				<path fill="#FF00FF" d="
M-21619.14-4860.97c2.64,0,4.78,2.14,4.78,4.78c0,2.64-2.14,4.78-4.78,4.78c-2.64,0-4.78-2.14-4.78-4.78
C-21623.92-4858.83-21621.78-4860.97-21619.14-4860.97z M-21619.14-4860.81c-2.54,0-4.61,2.07-4.61,4.62
c0,2.55,2.06,4.62,4.61,4.62c2.54,0,4.61-2.07,4.61-4.62C-21614.53-4858.75-21616.6-4860.81-21619.14-4860.81z"/>

				<path fill="#FF00FF" d="
M-21621.64-4845.35c2.57,0,4.65,2.08,4.65,4.66s-2.08,4.65-4.65,4.65c-2.57,0-4.66-2.08-4.66-4.65
S-21624.21-4845.35-21621.64-4845.35z M-21621.64-4845.19c-2.48,0-4.49,2.01-4.49,4.5c0,2.48,2.01,4.5,4.49,4.5
s4.49-2.01,4.49-4.5C-21617.15-4843.18-21619.16-4845.19-21621.64-4845.19z"/>

				<path d="
M-21488.38-4922.29c-0.66,3.42-0.88,6.83,0.13,10.25
M-21498.25-4928.29c-0.29,8.33,2.01,14.54,5.38,19.88
M-21515.75-4915.29c5.52,4.74,11.94,8.22,19.13,10.63
M-21498.13-4902.16c-4.91-0.37-8.84-0.25-11.75,0.38
M-21499.63-4898.79c-5.83,2.75-11.5,5-17,6.75
M-21500-4891.66c-6.25,5-12.5,8.68-18.75,12.75
M-21580-4921.29c-4.09,9.28-1.96,15.94,0.13,22.63
M-21583.88-4921.54c-2.71,9.28-7.49,15.04-12.5,20.38
M-21691.83-4974.54v20.7
M-21666.63-4961.41c-6.21,6-12.42,12.37-18.63,12.88
M-21681-4959.54l-5.25,9.25
M-21672.13-4948.91c-3.63,2-7.18,4.54-11.13,4
M-21660.75-4941.29c-7.86,1.75-15.26,2.29-22.13,0
M-21669.25-4931.91c-5.73-0.4-9.6-2.34-13.38-4.38
M-21663.38-4919.79c-2.52,1.65-22.07-9.37-20.25-12
M-21677.88-4919.79c-1.59,0.72-8.94-8.62-7.38-10.38
M-21673.63-4903.66c-5.35-7.83-15.02-13.4-14.13-24.5
M-21529.15-4846.43c-10.82,4.82-21.65,5.45-32.47,6.14c9.62,6.54,19.23,13.1,22.87,26.55
M-21668.88-4867.42c6.61,7.1,14.81,12.62,24.75,16.38c-8.4,4.23-17.26,7.81-22.78,16.2"/>
				<g>

					<path fill="#DA251C" d="
M-21862.42-4837.74c-6.53,7.53-2.77,19.63,6.28,20.41c3.82-7.44,8.79-11.43,13.49-16.21
C-21849.24-4833.99-21855.83-4834.11-21862.42-4837.74L-21862.42-4837.74z"/>

					<path fill="#DA251C" d="
M-21521.23-4837.74c6.53,7.53,2.77,19.63-6.28,20.41c-3.82-7.44-8.79-11.43-13.49-16.21
C-21534.41-4833.99-21527.82-4834.11-21521.23-4837.74L-21521.23-4837.74z"/>

					<path fill="#DA251C" d="
M-21691.83-4841.54c5.38-4.63,12.08-8.37,20.45-11c-7.4-2.7-14.38-6.05-20.45-10.75c-6.07,4.7-13.05,8.05-20.45,10.75
C-21703.9-4849.91-21697.2-4846.17-21691.83-4841.54z"/>
				</g>

				<path d="
M-21675.25-4828.04v44.75
M-21653-4826.79v35.75
M-21635.88-4825.29v28.5
M-21620.13-4825.04l-0.5,27.25
M-21608.88-4824.29v28.25
M-21598.38-4822.04l-0.25,26.5
M-21590.63-4821.04v28
M-21582.88-4820.04v29.5
M-21576-4818.79v30
M-21571.13-4817.54v31.5
M-21566.14-4816.79v31.5
M-21561.38-4815.54v32
M-21556.75-4813.79v31
M-21551.25-4808.91v25.26
M-21546.69-4807.1v21.81
M-21542.57-4805.48v18.57
M-21538.43-4803.43v14.66
M-21534.79-4801.29v10.55"/>

				<path fill="#D7D7D7" d="
M-21691.83-4824.09c44.38,0,140.74,3.4,163.42,28.07c2.83,2.25,8.36-5.72,2.38-10.3c-41.35-30.08-149.39-28.71-165.8-28.71"/>

				<g id="g4792" transform="matrix(-1,0,0,1,-43403.653,0)">

					<path fill="#D7D7D7" stroke="#D7D7D7" stroke-width="1.2" stroke-linecap="square" stroke-linejoin="round" d="
M-21909.84-4887.73c-6.21-2.21-11.81-11.61-11.51-19.3c0.17-4.33,1.91-6.63,4.99-6.59c6.13,0.08,13.47,10.41,13.47,18.96
C-21902.9-4889.09-21905.72-4886.27-21909.84-4887.73L-21909.84-4887.73z"/>
					<path fill="#D7D7D7" stroke-width="1.2" d="
M-21918.99-4914.37c-4.32,2.13-4.75,10.07-0.96,17.73c3.78,7.66,10.35,12.14,14.67,10.01c4.32-2.13,4.75-10.07,0.96-17.73
C-21908.11-4912.02-21914.67-4916.5-21918.99-4914.37z M-21918.75-4913.9c4.17-2.06,10.51,2.26,14.16,9.66
c3.66,7.4,3.24,15.06-0.93,17.12c-4.17,2.06-10.51-2.26-14.16-9.66C-21923.34-4904.18-21922.93-4911.84-21918.75-4913.9
L-21918.75-4913.9z"/>

					<path d="
M-21912.65-4893.91c3.71,2.03,5.71,0.21,6.75-3.75"/>
				</g>

				<g id="g4800" transform="matrix(-1,0,0,1,-43383.653,0)">

					<path fill="#D7D7D7" stroke="#D7D7D7" stroke-linecap="square" stroke-linejoin="round" d="
M-21805.4-4919.37c-6.44-1.86-10.58-7.62-10.17-14.16c0.32-5.1,3.09-9.21,7.76-11.5c3.96-1.94,7.8-1.94,11.88,0.01
c4.69,2.24,7.78,7.1,7.77,12.23c-0.01,5.78-3.72,11.08-9.13,13.05C-21799.12-4919.06-21803.63-4918.86-21805.4-4919.37z"/>
					<path fill="#D7D7D7" d="M-21801.89-4947.6
c-8.23,0-14.9,6.68-14.9,14.9s6.68,14.9,14.9,14.9c8.23,0,14.91-6.68,14.91-14.9S-21793.66-4947.6-21801.89-4947.6z
 M-21801.89-4947.09c7.95,0,14.4,6.44,14.4,14.39c0,7.95-6.44,14.39-14.4,14.39c-7.95,0-14.4-6.44-14.4-14.39
C-21816.29-4940.65-21809.84-4947.09-21801.89-4947.09z"/>

					<path d="
M-21797.4-4939.41c2.67,1.08,3.83,2.83,3.5,5.25
M-21810.78-4930.91c2.82,3.01,6.06,5.51,12.5,4.25"/>
				</g>
				<g id="g4680" transform="translate(-20,0)">

					<path fill="#D7D7D7" stroke="#D7D7D7" stroke-linecap="square" stroke-linejoin="round" d="
M-21675.02-4926.48c-2.89-1.37-5.25-4.57-6.3-8.54c-0.59-2.23-0.57-6.81,0.02-9c0.58-2.14,1.97-4.74,3.33-6.26
c2.48-2.76,6.34-3.65,9.38-2.16c1.74,0.85,4.06,3.28,5.02,5.25c1.7,3.49,2.17,8.4,1.18,12.27
C-21664.19-4927.88-21669.91-4924.06-21675.02-4926.48z"/>
					<path fill="#D7D7D7" d="M-21671.83-4954.35
c-6.09,0-11.03,6.68-11.03,14.9s4.94,14.9,11.03,14.9s11.03-6.68,11.03-14.9S-21665.74-4954.35-21671.83-4954.35z
 M-21671.83-4953.84c5.89,0,10.65,6.44,10.65,14.39c0,7.95-4.77,14.39-10.65,14.39s-10.65-6.44-10.65-14.39
C-21682.48-4947.4-21677.71-4953.84-21671.83-4953.84z"/>

					<path d="
M-21678.15-4933.29c9.97,2.2,10.94-4.53,11.5-6.63
M-21678.28-4943.04c1.18-2.85,2.97-5.22,7.13-5.75"/>
				</g>
			</g>

			<path fill="#DA251C" stroke-width="2.5" d="
M-22392.72-4556.68c-75.82-51.36-125.12-4.37-166.77,0.68c-17.69,2.15-34.07-4.53-58.1-11.54l-64.36,73.66
c11.97,11.49,25.59,29.85,25.59,61.26v240.38c0,38.36-10.16,68.35-34.57,88.62c47.46,43.13,32.84,84.99,118.52,147.92
c86.75,63.72,127.73,46.31,179.69,82.16"/>
			<g>
				<defs>
					<path id="SVGID_1_" d="M-22392.72-4556.68c-75.82-51.36-125.12-4.37-166.77,0.68c-17.69,2.15-34.07-4.53-58.1-11.54
l-64.36,73.66c11.97,11.49,25.59,29.85,25.59,61.26v240.38c0,38.36-10.16,68.35-34.57,88.62
c47.46,43.13,32.84,84.99,118.52,147.92c86.75,63.72,127.73,46.31,179.69,82.16"/>
				</defs>
				<clipPath id="SVGID_2_">
					<use xlink:href="#SVGID_1_"  overflow="visible"/>
				</clipPath>

				<path clip-path="url(#SVGID_2_)" fill="#D7D7D7" stroke-width="2.5" d="
M-22687.78-4133.91v-194.66l50.93-0.14v-27.67h45.54v27.67l22.79,0.14v-194.75l45.55-27.81l42.7,27.81v194.75l22.79-0.14v-27.67
h45.54v27.67l50.93,0.14v194.66h-161.53H-22687.78z"/>
			</g>

			<path fill="#005CA1" stroke-width="2.5" d="
M-22392.72-4556.68c75.82-51.36,125.12-4.37,166.77,0.68c17.69,2.15,34.07-4.53,58.1-11.54l64.36,73.66
c-11.97,11.49-25.59,29.85-25.59,61.26v240.38c0,38.36,10.16,68.35,34.57,88.62c-47.46,43.13-32.84,84.99-118.52,147.92
c-86.75,63.72-127.73,46.31-179.69,82.16"/>
			<path fill="#005CA1" stroke-width="2.5" d="M-22690.94-4103.61
c47.46,43.13,32.84,84.99,118.52,147.92c86.75,63.72,127.73,46.3,179.69,82.15v-230.07H-22690.94z"/>
			<path fill="#DA251C" stroke-width="2.5" d="M-22392.72-4103.61
v230.07c51.96-35.85,92.94-18.43,179.69-82.15c85.68-62.93,71.06-104.79,118.52-147.92H-22392.72z"/>

			<path fill="#D7D7D7" stroke-width="2.5" d="
M-22636.85-4467.61v-55.62l23.1-18l23.1,18v55.62l-23.1-0.11L-22636.85-4467.61z"/>
			<path stroke-width="2.5" d="M-22392.72-4556.68
v683.14"/>
			<path fill="#D7D7D7" stroke-width="2.5" d="M-22611.77-4075.95
c-3.8,0.07-7.67,0.28-11.42,0.83c-6.32,1.03-12.44,2.71-18.43,4.69c-6.26,2.06-12.43,4.39-18.74,6.34
c6.89,12.37,12.82,25.17,21.22,38.88c5.2-1.63,10.49-3.02,15.95-3.91c3.75-0.55,7.62-0.76,11.42-0.83
c4.63,0.28,9.28,0.5,13.76,1.63c10.29,2.01,19.88,5.93,29.69,9.16c5.99,1.97,12.11,3.66,18.43,4.69
c3.45,0.61,7.03,0.56,10.55,0.89c4.93-0.33,9.89-0.48,14.65-1.69c10.29-2.01,19.88-5.93,29.69-9.16
c5.99-1.97,12.11-3.66,18.43-4.69c3.75-0.55,7.62-0.76,11.42-0.83c4.63,0.28,9.28,0.5,13.76,1.63
c10.29,2.01,19.88,5.93,29.69,9.16c5.99,1.97,12.11,3.66,18.43,4.69c3.45,0.61,7.04,0.56,10.55,0.89h0
c4.93-0.33,9.88-0.48,14.65-1.69c10.29-2.01,19.88-5.93,29.69-9.16c5.99-1.97,12.11-3.66,18.43-4.69
c3.75-0.55,7.62-0.76,11.42-0.83c4.63,0.28,9.28,0.5,13.76,1.63c10.29,2.01,19.88,5.93,29.69,9.16
c5.99,1.97,12.11,3.66,18.43,4.69c3.45,0.61,7.04,0.56,10.55,0.89c4.93-0.33,9.89-0.48,14.65-1.69
c10.29-2.01,19.88-5.93,29.69-9.16c5.99-1.97,12.11-3.66,18.43-4.69c3.75-0.55,7.62-0.76,11.42-0.83
c4.63,0.28,9.28,0.5,13.76,1.63c4.04,0.79,7.97,1.88,11.85,3.1c8.41-13.71,14.33-26.51,21.22-38.88
c-1.13-0.35-2.26-0.69-3.38-1.06c-9.81-3.23-19.4-7.15-29.69-9.16c-4.48-1.13-9.13-1.35-13.76-1.63
c-3.8,0.07-7.67,0.28-11.42,0.83c-6.32,1.03-12.44,2.71-18.43,4.69c-9.81,3.23-19.4,7.15-29.69,9.16
c-4.77,1.21-9.72,1.36-14.65,1.69c-3.51-0.33-7.1-0.28-10.55-0.89c-6.32-1.03-12.44-2.71-18.43-4.69
c-9.81-3.23-19.4-7.15-29.69-9.16c-4.48-1.13-9.13-1.35-13.76-1.63c-3.8,0.07-7.67,0.28-11.42,0.83
c-6.32,1.03-12.44,2.71-18.43,4.69c-9.81,3.23-19.4,7.15-29.69,9.16c-4.77,1.21-9.72,1.36-14.65,1.69h0
c-3.51-0.33-7.1-0.28-10.55-0.89c-6.32-1.03-12.43-2.71-18.43-4.69c-9.81-3.23-19.4-7.15-29.69-9.16
c-4.48-1.13-9.12-1.35-13.76-1.63c-3.8,0.07-7.67,0.28-11.42,0.83c-6.32,1.03-12.44,2.71-18.43,4.69
c-9.81,3.23-19.4,7.15-29.69,9.16c-4.77,1.21-9.72,1.36-14.65,1.69c-3.52-0.33-7.1-0.28-10.55-0.89
c-6.32-1.03-12.44-2.71-18.43-4.69c-9.81-3.23-19.4-7.15-29.69-9.16C-22602.49-4075.46-22607.14-4075.67-22611.77-4075.95z
 M-22465.15-3983.95c-3.8,0.07-7.67,0.28-11.42,0.83c-6.32,1.03-12.44,2.71-18.43,4.69c-9.81,3.23-19.4,7.15-29.69,9.16
c-4.77,1.21-9.72,1.36-14.65,1.69c-3.52-0.33-7.1-0.28-10.55-0.89c-6.32-1.03-12.44-2.71-18.43-4.69
c-9.81-3.23-19.4-7.15-29.69-9.16c-2.5-0.63-5.05-0.97-7.62-1.2c9.07,8.83,19.93,18.07,33.21,27.83
c19.06,14,35.9,24.08,51.14,31.67c9.01-2.14,17.55-5.54,26.27-8.41c5.99-1.97,12.11-3.66,18.43-4.69
c3.75-0.55,7.62-0.76,11.42-0.83c4.63,0.28,9.28,0.5,13.76,1.63c10.29,2.01,19.88,5.93,29.69,9.16
c5.99,1.97,12.11,3.66,18.43,4.69c3.45,0.61,7.04,0.56,10.55,0.89h0c4.93-0.33,9.88-0.48,14.65-1.69
c10.29-2.01,19.88-5.93,29.69-9.16c5.99-1.97,12.11-3.66,18.43-4.69c3.75-0.55,7.62-0.76,11.42-0.83
c4.63,0.28,9.28,0.5,13.76,1.63c10.29,2.01,19.88,5.93,29.69,9.16c3.58,1.18,7.21,2.25,10.9,3.15
c15.24-7.59,32.09-17.67,51.16-31.67c13.29-9.76,24.16-19.01,33.23-27.84c-1.18,0.11-2.36,0.24-3.53,0.41
c-6.32,1.03-12.44,2.71-18.43,4.69c-9.81,3.23-19.4,7.15-29.69,9.16c-4.77,1.21-9.72,1.36-14.65,1.69
c-3.51-0.33-7.1-0.28-10.55-0.89c-6.32-1.03-12.44-2.71-18.43-4.69c-9.81-3.23-19.4-7.15-29.69-9.16
c-4.48-1.13-9.13-1.35-13.76-1.63c-3.8,0.07-7.67,0.28-11.42,0.83c-6.32,1.03-12.44,2.71-18.43,4.69
c-9.81,3.23-19.4,7.15-29.69,9.16c-4.77,1.21-9.72,1.36-14.65,1.69h0c-3.51-0.33-7.1-0.28-10.55-0.89
c-6.32-1.03-12.43-2.71-18.43-4.69c-9.81-3.23-19.4-7.15-29.69-9.16C-22455.87-3983.46-22460.52-3983.67-22465.15-3983.95z"/>

			<path fill="#D7D7D7" stroke-width="2.5" d="
M-22408.09-4467.61v-55.62l-23.1-18l-23.1,18v55.62l23.1-0.11L-22408.09-4467.61z"/>

			<path d="
M-22658.9-4161.72h265.9
M-22656.03-4189.53h263.03
M-22656.03-4217.33h263.03
M-22656.03-4245.14h263.03
M-22656.03-4272.95h263.03
M-22656.03-4300.76h263.03
M-22656.03-4328.57h263.03
M-22568.54-4356.38h87.54
M-22568.54-4384.19h87.54
M-22568.54-4412h87.54
M-22569.02-4439.8h88.16
M-22569.02-4467.61h88.93
M-22636.51-4495.42h45.73 M-22568.84-4495.42h88.43 M-22455.17-4495.42h47.07
M-22637.3-4523.23h46.3 M-22568.84-4523.23h87.99 M-22455.17-4523.23h47.07M-22636.85-4523.36
v27.81M-22591.3-4523.36
v27.81M-22545.76-4523.36
v27.81M-22500.22-4523.36
v27.81M-22454.68-4523.36
v27.81M-22545.76-4467.64
v27.81M-22500.22-4467.64
v27.81M-22545.76-4412.05
v27.81M-22500.22-4412.05
v27.81M-22636.85-4356.52
v27.81M-22591.3-4356.52
v27.81M-22545.76-4356.52
v27.81M-22500.22-4356.52
v27.81M-22636.85-4300.92
v27.81M-22591.3-4300.92
v27.81M-22454.68-4300.92
v27.81M-22409.13-4300.92
v27.81M-22636.85-4245.14
v27.81M-22591.3-4245.14
v27.81M-22454.68-4245.14
v27.81M-22409.13-4245.14
v27.81M-22636.85-4189.54
v27.81M-22591.3-4189.54
v27.81M-22454.68-4189.54
v27.81M-22409.13-4189.54
v27.81
M-22613.74-4541.23l-0.31,17.9M-22522.97-4551.13
v27.81
M-22431.66-4541.26v17.93M-22614.05-4495.54
v27.81M-22568.52-4495.54
v27.81M-22522.97-4495.54
v27.81M-22431.88-4495.54
v27.81M-22568.52-4439.82
v27.81M-22522.97-4439.82
v27.81M-22568.52-4384.22
v27.81M-22522.97-4384.22
v27.81M-22614.05-4328.69
v27.81M-22568.52-4328.69
v27.81M-22522.97-4328.69
v27.81M-22477.43-4328.69
v27.81M-22431.88-4328.69
v27.81M-22614.05-4273.1
v27.81M-22568.52-4273.1
v27.81M-22431.88-4273.1
v27.81M-22614.05-4217.31
v27.81"/>
			<path id="path4297-4" d="M-22568.52-4217.31
v27.81M-22431.88-4217.31
v27.81M-22659.6-4161.71
v27.81M-22614.05-4161.71
v27.81M-22568.51-4161.71
v27.81M-22431.88-4161.71
v27.81"/>

			<path fill="#DA251C" stroke-width="2.5" d="
M-22557.91-4132.39v-132.85c0-18.88,15.3-34.18,34.18-34.18c18.88,0,34.18,15.3,34.18,34.18v132.85"/>

			<path fill="#D7D7D7" stroke-width="2.5" d="
M-22523.73-4314.38c-24.96,0-45.2,20.24-45.2,45.2v135.04h11.03v-131.1c0-18.88,15.3-34.18,34.18-34.18
c18.88,0,34.18,15.3,34.18,34.18v131.1h11.01v-135.04C-22478.53-4294.15-22498.77-4314.38-22523.73-4314.38z"/>
			<path d="M-22568.93-4145.21
h11.03M-22568.93-4174.07
h11.03M-22568.93-4200.6
h11.03M-22568.93-4230.09
h11.03M-22568.93-4258.02
h11.03M-22565.02-4287.61
l10.88,6.75M-22544.7-4309.23
l6.46,13.04
M-22478.53-4145.21h-11.03
M-22478.53-4174.07h-11.03
M-22478.53-4200.6h-11.03
M-22478.53-4230.09h-11.03
M-22478.53-4258.02h-11.03
M-22482.45-4287.61l-10.88,6.75
M-22502.76-4309.23l-6.46,13.04"/>

			<path fill="#DA251C" stroke-width="2.5" d="
M-22510.49-4467.95l-23.63,0.11v-41.99c0-6.45,5.23-11.68,11.68-11.68c6.45,0,11.68,5.23,11.68,11.68l0,0l0.27,41.99"/>

			<path fill="#DA251C" stroke-width="2.5" d="
M-22533.95-4356.72l-23.63,0.11v-70.29c0-6.45,5.23-11.68,11.68-11.68c6.45,0,11.68,5.23,11.68,11.68l0,0l0.27,70.29"/>

			<path fill="#DA251C" stroke-width="2.5" d="
M-22602.99-4485.19l-23.63,0.08v-28.02c0-4.76,5.23-8.61,11.68-8.61c6.45,0,11.68,3.86,11.68,8.61l0,0l0.27,28.02"/>

			<path fill="#DA251C" stroke-width="2.5" d="
M-22511.45-4356.72l23.63,0.11v-70.29c0-6.45-5.23-11.68-11.68-11.68c-6.45,0-11.68,5.23-11.68,11.68l0,0l-0.27,70.29"/>

			<path fill="#DA251C" stroke-width="2.5" d="
M-22442.41-4485.19l23.63,0.08v-28.02c0-4.76-5.23-8.61-11.68-8.61c-6.45,0-11.68,3.86-11.68,8.61l0,0l-0.27,28.02"/>
			<g id="g4496" transform="translate(-960,0)">
				<path fill="#DA251C" d="
M-21236.93-4437.78c22.53,6.9,27.18,24.13,23.65,33.69c-2.71-5.93-4.87-12.59-9.75-15.63c2.98,12.72-0.18,16.62-3.15,20.79
c-1.31-18.91-14.08-20.03-17.78-28.1"/>

				<path fill="#D7D7D7" d="
M-21335.4-4153.95c2.61-6.05,6.89-7.98,9.75-13.33c5.27-21.77-1.93-43.72-0.72-68.23l18.49-50.17l46.59-4.3
c0.42,16.35-1.15,29.12-2.58,42.14c-0.51,6.74-0.88,13.5-4.73,19.5c-0.64,29.38-6.63,47.45-2.87,68.66
c7.65,2.34,12.48,9.56,21.93,11.61c7.39-0.57,7.31,4.18,5.02,5.45l-43.43,0.14c-10.5-4.86-3.98-13.43-1.29-20.93
c-1.74-22.87-7.54-44.98-2.01-69.24c-2.97-14.46-4.22-32.36-5.73-49.74l-1.58,0.14c-0.87,17.57-2.35,34.88-5.88,51.32
c7.94,27.41-1.58,50-2.58,71.82c6.18,14.63-2.13,16.05-5.02,16.63h-41.28C-21360.44-4151.24-21344.1-4147.71-21335.4-4153.95
L-21335.4-4153.95z"/>

				<path fill="#D7D7D7" d="
M-21304.16-4461.58c-4.46,1.19-9.93,4.15-11.3-4.87c0,0-3.28-1.6-1.32-3.91c-0.79-0.69-1.78-1.03-3.14-1.42
c-0.64-1.2,0.76-4.36,0.09-5.91c-1.57-0.29-1.91,0.02-3.31-0.05c-1.29-0.06-3.04-1.36-1.95-4.72c1.14-3.49,3.02-6.82,3.65-10.54
c0.67-3.94-0.2-7.98,4.36-11.76c6.01-4.98,12.09-4.65,18.14-4.87c19.8-0.7,19.23,19.2,26.25,26.66
c11.94,12.69,19.53,24.19,10.24,33.04c30.93,20.13,18.81,77.85,16.42,91.02c-2.92,5.58-7.93,11.15-12.67,16.72
c4.25,21.15,4.28,38.17,3.97,53.84c-3.5,2.48-6.07,2.88-8.63,3.13c-3.91,1.73-9.38,3.49-16.07,3.76
c-8.07,3.58-16.43,2.02-24.67,2.53l-62.24,140.49l-10.95-0.41l46.78-104.26c-6.94-9.53-11.31-25.44-15.97-43.32l8.31-10.14
c-2.77-4.01-4.94-13.4-5.07-25.95l21.73-24.55l-1.11-6.06l-0.55-10.14c-2.55,2.65-5.5,6.25-8.11,5.47
c-10.34-2.77-21.11-5.5-31.45-9.54c-6.79,4.47-13.3-1.01-27.82-3.17c-1.33,0.35-6.72-3.49-9.28-5.17
c-0.32-3.34-0.32-6.29-1.89-10.87c-1.22-3.57,0.93-5.39,4.04-0.35c0.91,1.46,2.54,3.15,2.53,6.71c5.48-1.95,9.4-0.96,13.39-0.13
c-0.03-3.03-3.82-4.49-6.09-6.46c-3.69-3.21-3.98-7.79,1.22-4.87c2.51,1.41,6.84,2.67,9.94,3.23c5.22,1.82,7.93,5.52,10.84,8.63
c9.5-1.12,18.13,0.04,25.04,2.13c-0.26-10.87,2.62-18.59,5.24-26.59c-3.05-24.33,4.57-36.9,16.36-44.87l12.54-8.74
L-21304.16-4461.58z"/>
				<path d="
M-21262.45-4449.92l-16.19-14.38c-11.1-16.3-17.53-40.29-38.44-40.46
M-21304.16-4461.58c10.39-4.71,17.5-12.71,18.7-14.21M-21316.78-4470.35l3.81,0.39
M-21316.91-4478.92c1.41-0.2,2.02-1.34,2.29-2.87
M-21315.98-4493.25c0.73-3.3,4.34-4.01,8.67-4.08
M-21315.27-4479.86c9.22,9.61,18.13-1.35,22.19-9.09"/>
				<ellipse cx="-21310.99" cy="-4489.88" rx="2.88" ry="1.54"/>
				<path d="
M-21326.93-4442.42c-1.12,30.34,1.58,54.32,3.76,79.16"/>
				<path fill="#D7D7D7" d="
M-21395.13-4380.18c-1.35,10.03,5.61,10.23-0.2,21.58c-2.93,12.63,3.65,14.45,2.53,20.27c-2.32,12.11,5.81,15.31,6.99,22.5
c4.01-7,2.61-10.86,3.95-15.1c10.8-9.09,1.87-15.44,1.42-24.53c10.15-5.49,4.3-19.19-1.3-24.86
M-21389.25-4375.72c0.8,6.12,4.79,12.37-0.3,18.25
M-21383.27-4372.48c7.24,10.98-7.14,15.15-2.63,29.09
M-21384.79-4337.11c-1.8,5.91-5.38,7.58-4.05,14.67"/>
				<path fill="#D7D7D7" d="M-21207.11-4536.83l1.65,10.1
l-5.84,13.18l-16.46-6.8l-8.6-9.89l-7.31,16.77l13.47,0.57l15.67,6.62l-77.73,175.46l19.25-18.65l67.83-152.85l20.12,8.5
c0,0,5.45,9.17,5.59,8.31s7.6-17.63,7.6-17.63l-10.46,1.58l-19.59-8.1l5.55-12.51l8.59-6.49L-21207.11-4536.83L-21207.11-4536.83
z"/>
				<path d="
M-21258.7-4342.17c-6.48,7.54-13.46,13.81-21.29,17.84c-1.3,7.35-3.71,12.48-6.49,16.88l-4,7.45c-0.93,1.7-3.35,5.77-5.02,2.53
c0.42-3.17,3.41-8.5,5.27-12.87
M-21295.49-4297.27c-0.63,2.1-1.37,3.8-2.94,3.75c-2.43-0.07-3.95,2.69-5.61,2.89c-1.73,0.21-2.37-1.22-2.09-4.51
c0.1-1.2-2.45-2.16-0.3-6.89c0.79-4.65-0.12-9.45,4.36-15.91c7.73-12.67,18.83-21.64,29.09-31.52M-21306.14-4295.14l5.98-15.51
M-21295.19-4310.45c-2.19,6.14-5.5,12.73-6.48,18.38
M-21268.94-4331.85c5.48,7.38,9.6,10.21,13.47,12.25
M-21280.22-4323.09c8.86,13.65,17.23,22.33,25.56,30.67
M-21284.51-4310.84c7.05,10.76,14.1,17.99,21.15,25.63
M-21290.48-4300.01c3.68,8.49,7.36,14.38,11.04,18.55M-21304.11-4278.92l5.68-14.6M-21330.51-4243.1l23.73-53.56
M-21321.51-4347.06c3.89,18.68,8.23,35.86,14.27,47.56
M-21338.17-4296.56c7.44-8.95,15.43-16.23,21.82-28.31
M-21326.51-4330.31c-4.32,7.89-10.31,12.84-16.1,18.15
M-21328.94-4318.96c-3.19,6.41-8.07,9.98-12.29,14.68M-21310.29-4334.17l8.21,16.22
M-21328.13-4294.74c-4.39,7.77-10.23,12.67-15.69,18.3
M-21318.3-4298.49c-6.25,13.51-14.27,23.49-21.97,34.08
M-21321.95-4275.98c-3.57,10.73-9,16.35-14.01,23.12
M-21311.41-4355.55c3.63,12.75,9.74,20.53,15.57,28.87
M-21314.65-4383.83c8.27,17.09,16.59,33.67,25.24,46.62
M-21299.55-4374.71c4.84,9.81,10.22,17.81,16.2,23.8
M-21318.01-4449.94c4.14,40.87,24.86,72.95,39.83,87.37
M-21279.79-4421.29c13.72,6.2,12.97,19.83,12.97,33.08
M-21293.69-4405.24c3.45,2.28,7.5,3.35,12.47,2.58"/>
				<path id="rect4477" fill="#D7D7D7" d="M-21376.98-4142.48h141.92c1.27,0,2.29,1.02,2.29,2.28v5.05
c0,1.26-1.03,2.27-2.29,2.27h-141.92c-1.27,0-2.29-1.02-2.29-2.27v-5.05C-21379.27-4141.46-21378.24-4142.48-21376.98-4142.48z"
/>
				<path fill="#D7D7D7" d="
M-21326.45-4225.34c1.06,4.29,3.02,4.57,4.8,5.59"/>
				<path fill="#D7D7D7" d="
M-21272.91-4223.76c1.01-3,2.53-4.25,4.3-4.59"/>
				<path fill="#D7D7D7" d="
M-21313.33-4156.82c1.72-4.38,3.44-4.44,5.16-5.16"/>
				<path fill="#DA251C" d="
M-21237.21-4513.21c6.4,38.99-22.13,54.19-10.32,80.88l6.59-14.19c11.01-23.7,45.63-16.8,55.4-47.57l-7.6-3.15
c-15.2,7.21-32.09-3.16-37.41-15.72L-21237.21-4513.21z"/>
				<path fill="#D6D7D8" d="M-21217.07-4492.61
c0,0-3.06,3.95-4.99,6.45l-6.62-0.36l-4.95,6.31l6.67,0.38c-4.29,5.55-8.51,11.03-8.68,11.23l6.59,0.43l8.74-11.28l6.74,0.38
l4.8-6.38l-6.62-0.36l5.11-6.6L-21217.07-4492.61z"/>
			</g>
		</g>
	</g>
</svg>
